<svg width="104" height="104" viewBox="0 0 104 104" fill="none" xmlns="http://www.w3.org/2000/svg">
<rect x="0.5" y="0.5" width="103" height="103" stroke="#F1F2F1"/>
<rect opacity="0.8" x="4" y="4" width="96" height="96" fill="#1B1D1F"/>
<path fill-rule="evenodd" clip-rule="evenodd" d="M43 45.8723C43 44.286 44.286 43 45.8723 43H52.162V45.6809H45.8723C45.7666 45.6809 45.6809 45.7666 45.6809 45.8723V58.1277C45.6809 58.2334 45.7666 58.3191 45.8723 58.3191H52.5439C52.5946 58.3191 52.6433 58.299 52.6793 58.2631L56.4235 54.5188H51.838V51.838H59.6596C60.3999 51.838 61 52.4381 61 53.1784V61H58.3191V56.4145L54.5749 60.1587C54.0362 60.6974 53.3056 61 52.5439 61H45.8723C44.286 61 43 59.714 43 58.1277V45.8723Z" fill="#F1F2F1"/>
</svg>
